#!OML:ASF I:\Actors\actors\Patient Classification 2\Patient 1\Session 1\actor1.ASF
:FULLY-SPECIFIED
:DEGREES
450
root -0.812908 18.2483 5.84092 3.03552 1.92351 -4.09368
lowerback 11.2596 2.22305 5.11534
upperback -1.15378 3.79921 1.77222
thorax -7.34303 1.68276 -1.65496
lowerneck -6.97815 -11.1703 -5.95291
upperneck -24.9264 -12.1598 17.1373
head -4.75661 -6.52154 6.54083
rclavicle 4.87022e-015 2.78299e-015
rhumerus 33.1839 38.0134 -66.097
rradius 124.981
rwrist -2.43652
rhand -43.3432 -3.01635
rfingers 7.12502
rthumb -16.1888 -32.3604
lclavicle 4.87022e-015 2.78299e-015
lhumerus -34.5309 -35.3076 96.1048
lradius 84.5295
lwrist 7.09694
lhand -4.40205 -24.8711
lfingers 7.12502
lthumb 21.3678 3.97069
rfemur 0 0 0
rtibia 0
rfoot 0 0
rtoes 0
lfemur 13.4372 -7.40613 -12.8308
ltibia -17.9405
lfoot -1.93749 17.3596
ltoes -11.4696
451
root -0.814063 18.2475 5.84929 3.0442 1.95795 -4.06295
lowerback 11.2203 2.20843 5.09438
upperback -1.13953 3.77027 1.73064
thorax -7.30531 1.67001 -1.68007
lowerneck -6.96506 -11.1871 -5.88615
upperneck -24.9253 -12.185 17.136
head -4.76075 -6.53996 6.53
rclavicle 2.03257e-014 7.55382e-015
rhumerus 33.6603 36.9142 -66.7687
rradius 124.309
rwrist -5.0409
rhand -42.099 -3.2022
rfingers 7.12502
rthumb -14.9906 -32.6396
lclavicle 2.03257e-014 7.55382e-015
lhumerus -34.6458 -35.2553 96.1576
lradius 84.7297
lwrist 7.22327
lhand -4.46022 -24.7265
lfingers 7.12502
lthumb 21.312 4.12165
rfemur 0 0 0
rtibia 0
rfoot 0 0
rtoes 0
lfemur 13.4503 -7.45495 -12.8657
ltibia -17.9356
lfoot -1.95426 17.3763
ltoes -11.3713
452
root -0.815251 18.2473 5.85682 3.06002 1.98282 -4.03339
lowerback 11.1911 2.19155 5.06496
upperback -1.13848 3.73928 1.69778
thorax -7.28889 1.65595 -1.69179
lowerneck -6.95242 -11.1817 -5.81913
upperneck -24.8551 -12.1888 17.1171
head -4.74709 -6.54552 6.50979
rclavicle -7.20594e-015 -3.57812e-015
rhumerus 34.17 35.8361 -67.3461
rradius 123.328
rwrist -7.3035
rhand -41.001 -3.96153
rfingers 7.12502
rthumb -13.9326 -33.4747
lclavicle -7.20594e-015 -3.57812e-015
lhumerus -34.719 -35.1834 96.232
lradius 84.8479
lwrist 7.33245
lhand -4.48179 -24.6164
lfingers 7.12502
lthumb 21.2912 4.23409
rfemur 0 0 0
rtibia 0
rfoot 0 0
rtoes 0
lfemur 13.4419 -7.44814 -12.8948
ltibia -17.9085
lfoot -1.95869 17.3566
ltoes -11.3424
453
root -0.816278 18.2466 5.86432 3.06497 1.96908 -4.02306
lowerback 11.1628 2.18114 5.04314
upperback -1.15147 3.72022 1.68439
thorax -7.28823 1.64715 -1.68957
lowerneck -6.86079 -11.193 -5.7702
upperneck -24.7573 -12.2236 17.0881
head -4.73358 -6.56663 6.49111
rclavicle 2.13694e-015 -2.42517e-014
rhumerus 34.6059 34.8696 -67.8827
rradius 122.015
rwrist -9.07774
rhand -40.0047 -4.76063
rfingers 7.12502
rthumb -12.9723 -34.3373
lclavicle 2.13694e-015 -2.42517e-014
lhumerus -34.8238 -35.0368 96.3701
lradius 84.9463
lwrist 7.38774
lhand -4.4036 -24.6554
lfingers 7.12502
lthumb 21.3663 4.18663
rfemur 0 0 0
rtibia 0
rfoot 0 0
rtoes 0
lfemur 13.4498 -7.49061 -12.9187
ltibia -17.8807
lfoot -1.983 17.4249
ltoes -11.569
454
root -0.817104 18.2464 5.87163 3.0621 1.94182 -4.00018
lowerback 11.1149 2.16493 4.9967
upperback -1.15835 3.68858 1.67258
thorax -7.27209 1.63384 -1.66882
lowerneck -6.74123 -11.1934 -5.72065
upperneck -24.6949 -12.2381 17.0801
head -4.73599 -6.58098 6.48379
rclavicle -4.27387e-015 8.74653e-015
rhumerus 34.9195 34.0158 -68.4197
rradius 120.5
rwrist -10.6133
rhand -38.9394 -5.36552
rfingers 7.12502
rthumb -11.9452 -35.0047
lclavicle -4.27387e-015 8.74653e-015
lhumerus -34.9221 -34.838 96.4942
lradius 85.0315
lwrist 7.42954
lhand -4.32871 -24.7271
lfingers 7.12502
lthumb 21.4383 4.10671
rfemur 0 0 0
rtibia 0
rfoot 0 0
rtoes 0
lfemur 13.4757 -7.59142 -12.959
ltibia -17.862
lfoot -2.03486 17.5493
ltoes -11.5592
455
root -0.818133 18.2467 5.87868 3.0702 1.93952 -4.00196
lowerback 11.0594 2.1399 4.97388
upperback -1.16852 3.64764 1.65462
thorax -7.25396 1.61492 -1.66594
lowerneck -6.664 -11.174 -5.67413
upperneck -24.6268 -12.2129 17.1369
head -4.72789 -6.57788 6.4953
rclavicle -7.23079e-015 -1.55052e-014
rhumerus 35.0994 33.2704 -68.8669
rradius 118.944
rwrist -11.7435
rhand -38.075 -6.21157
rfingers 7.12502
rthumb -11.1116 -35.8974
lclavicle -7.23079e-015 -1.55052e-014
lhumerus -34.9419 -34.6891 96.5413
lradius 85.0134
lwrist 7.48864
lhand -4.33438 -24.7471
lfingers 7.12502
lthumb 21.4328 4.08732
rfemur 0 0 0
rtibia 0
rfoot 0 0
rtoes 0
lfemur 13.479 -7.58603 -12.9559
ltibia -17.8349
lfoot -2.03726 17.5559
ltoes -11.6284
456
root -0.820089 18.249 5.88605 3.11386 1.92452 -4.02421
lowerback 10.9911 2.11524 4.9571
upperback -1.22681 3.61058 1.6489
thorax -7.28037 1.59601 -1.65474
lowerneck -6.48928 -11.1564 -5.75004
upperneck -24.5585 -12.1751 17.3102
head -4.71663 -6.56946 6.56786
rclavicle 3.11595e-014 -7.15625e-015
rhumerus 35.0201 32.7183 -69.2331
rradius 117.544
rwrist -12.27
rhand -37.5274 -7.06904
rfingers 7.12502
rthumb -10.5834 -36.7826
lclavicle 3.11595e-014 -7.15625e-015
lhumerus -35.0439 -34.5306 96.6296
lradius 84.9753
lwrist 7.53578
lhand -4.28537 -24.6914
lfingers 7.12502
lthumb 21.4799 4.1377
rfemur 0 0 0
rtibia 0
rfoot 0 0
rtoes 0
lfemur 13.4491 -7.57885 -12.9249
ltibia -17.8077
lfoot -2.0543 17.5943
ltoes -11.807
457
root -0.822906 18.252 5.8952 3.17112 1.86797 -4.03591
lowerback 10.8949 2.1105 4.89958
upperback -1.3152 3.59432 1.64375
thorax -7.32422 1.58811 -1.62303
lowerneck -6.2132 -11.1259 -5.88698
upperneck -24.4863 -12.1162 17.5353
head -4.71352 -6.55253 6.67268
rclavicle -1.98288e-014 -3.29983e-014
rhumerus 34.5449 32.3264 -69.5419
rradius 116.608
rwrist -12.1548
rhand -37.3094 -7.35032
rfingers 7.12502
rthumb -10.3731 -37.0745
lclavicle -1.98288e-014 -3.29983e-014
lhumerus -35.2717 -34.3594 96.7984
lradius 84.9983
lwrist 7.48274
lhand -4.21117 -24.6226
lfingers 7.12502
lthumb 21.5512 4.19829
rfemur 0 0 0
rtibia 0
rfoot 0 0
rtoes 0
lfemur 13.4348 -7.64818 -12.9076
ltibia -17.7955
lfoot -2.15352 17.7409
ltoes -11.6219
458
root -0.825043 18.2525 5.9065 3.19161 1.81378 -4.04462
lowerback 10.8145 2.15288 4.84023
upperback -1.3718 3.63802 1.61133
thorax -7.33765 1.61021 -1.62872
lowerneck -6.10152 -11.1315 -5.9489
upperneck -24.3219 -12.1186 17.6934
head -4.66034 -6.55886 6.72641
rclavicle 5.81445e-015 1.98785e-015
rhumerus 33.683 32.01 -69.6711
rradius 116.348
rwrist -11.1103
rhand -37.6511 -7.10954
rfingers 7.12502
rthumb -10.7027 -36.8169
lclavicle 5.81445e-015 1.98785e-015
lhumerus -35.3718 -34.316 96.9567
lradius 85.0014
lwrist 7.35462
lhand -4.17146 -24.6685
lfingers 7.12502
lthumb 21.5893 4.14801
rfemur 0 0 0
rtibia 0
rfoot 0 0
rtoes 0
lfemur 13.4709 -7.68239 -12.9021
ltibia -17.7934
lfoot -2.21984 17.8297
ltoes -11.5729
459
root -0.827292 18.2521 5.91746 3.19356 1.77509 -4.02526
lowerback 10.7664 2.2357 4.74824
upperback -1.39906 3.73103 1.56631
thorax -7.33615 1.65819 -1.63821
lowerneck -6.13138 -11.1672 -6.03954
upperneck -24.1241 -12.1643 17.8208
head -4.56978 -6.5754 6.76215
rclavicle 5.2007e-014 -1.15295e-014
rhumerus 32.5296 31.822 -69.596
rradius 116.737
rwrist -8.8418
rhand -38.5567 -6.62341
rfingers 7.12502
rthumb -11.5762 -36.2837
lclavicle 5.2007e-014 -1.15295e-014
lhumerus -35.3444 -34.4447 97.0618
lradius 85.0319
lwrist 7.28992
lhand -4.11248 -24.6741
lfingers 7.12502
lthumb 21.6459 4.13591
rfemur 0 0 0
rtibia 0
rfoot 0 0
rtoes 0
lfemur 13.5293 -7.66026 -12.9294
ltibia -17.8137
lfoot -2.21572 17.8524
ltoes -11.7548
460
root -0.830629 18.2524 5.92691 3.20337 1.79673 -4.03464
lowerback 10.7418 2.31718 4.66555
upperback -1.42278 3.82635 1.54065
thorax -7.34518 1.70707 -1.63386
lowerneck -6.14298 -11.1538 -6.20951
upperneck -24.0381 -12.1266 17.9779
head -4.51779 -6.54919 6.83136
rclavicle -2.26118e-014 -1.19271e-014
rhumerus 31.2488 31.7498 -69.4472
rradius 117.572
rwrist -5.76414
rhand -39.6237 -5.40838
rfingers 7.12502
rthumb -12.6051 -35.0081
lclavicle -2.26118e-014 -1.19271e-014
lhumerus -35.3241 -34.6625 97.1664
lradius 85.1015
lwrist 7.22514
lhand -3.98624 -24.5647
lfingers 7.12502
lthumb 21.7672 4.23137
rfemur 0 0 0
rtibia 0
rfoot 0 0
rtoes 0
lfemur 13.568 -7.69872 -12.9141
ltibia -17.8595
lfoot -2.18204 17.8931
ltoes -11.9515
461
root -0.834411 18.2519 5.93588 3.19179 1.90057 -4.08632
lowerback 10.7565 2.38981 4.61438
upperback -1.42048 3.91698 1.53793
thorax -7.34894 1.75327 -1.62348
lowerneck -6.25739 -11.1132 -6.29649
upperneck -24.027 -12.0617 17.9807
head -4.49656 -6.50384 6.84023
rclavicle -1.70209e-014 -7.15625e-015
rhumerus 30.5762 31.6804 -68.3651
rradius 118.92
rwrist -2.77904
rhand -40.8013 -4.16158
rfingers 7.12502
rthumb -13.7401 -33.6879
lclavicle -1.70209e-014 -7.15625e-015
lhumerus -35.2533 -34.8798 97.3345
lradius 85.1156
lwrist 7.12838
lhand -3.86329 -24.5
lfingers 7.12502
lthumb 21.8852 4.28225
rfemur 0 0 0
rtibia 0
rfoot 0 0
rtoes 0
lfemur 13.6018 -7.80095 -12.8455
ltibia -17.8989
lfoot -2.13136 17.9004
ltoes -12.2547
462
root -0.838777 18.2507 5.94514 3.17754 2.01183 -4.1
lowerback 10.7823 2.46386 4.48127
upperback -1.40849 4.00051 1.55759
thorax -7.35612 1.79994 -1.54319
lowerneck -6.4529 -11.0734 -6.23294
upperneck -24.0351 -12.0372 17.6932
head -4.50208 -6.46975 6.73115
rclavicle -1.73191e-014 -5.1684e-015
rhumerus 28.3581 32.0099 -69.1748
rradius 120.058
rwrist 0.905694
rhand -41.3197 -1.41213
rfingers 7.12502
rthumb -14.2397 -30.904
lclavicle -1.73191e-014 -5.1684e-015
lhumerus -35.1543 -35.0738 97.5192
lradius 85.1226
lwrist 7.15474
lhand -3.81564 -24.4018
lfingers 7.12502
lthumb 21.931 4.37515
rfemur 0 0 0
rtibia 0
rfoot 0 0
rtoes 0
lfemur 13.6343 -7.84875 -12.8137
ltibia -17.9348
lfoot -2.07669 17.8282
ltoes -12.4874
463
root -0.843492 18.2496 5.95408 3.19602 2.1089 -4.05638
lowerback 10.7882 2.52854 4.24723
upperback -1.44007 4.05982 1.58789
thorax -7.4079 1.83768 -1.39194
lowerneck -6.45125 -10.9798 -6.17293
upperneck -24.165 -11.9492 17.323
head -4.59157 -6.40918 6.6202
rclavicle 2.02512e-014 7.55382e-015
rhumerus 26.9572 32.3141 -68.736
rradius 121.429
rwrist 3.66782
rhand -42.0982 0.713881
rfingers 7.12502
rthumb -14.9897 -28.7236
lclavicle 2.02512e-014 7.55382e-015
lhumerus -35.1465 -35.1683 97.702
lradius 85.1562
lwrist 7.2728
lhand -3.70678 -24.3088
lfingers 7.12502
lthumb 22.0355 4.45584
rfemur 0 0 0
rtibia 0
rfoot 0 0
rtoes 0
lfemur 13.6418 -7.93143 -12.8463
ltibia -17.9797
lfoot -2.06892 17.8259
ltoes -12.4966
464
root -0.848734 18.2485 5.96179 3.22131 2.21635 -4.04733
lowerback 10.7883 2.5674 4.06931
upperback -1.48442 4.09311 1.62755
thorax -7.46887 1.86039 -1.25795
lowerneck -6.35639 -10.8382 -6.22734
upperneck -24.3182 -11.7843 17.0413
head -4.69492 -6.31083 6.56395
rclavicle 3.22777e-014 -3.97569e-015
rhumerus 25.4255 32.7363 -68.489
rradius 122.743
rwrist 6.40013
rhand -42.8703 3.38293
rfingers 7.12502
rthumb -15.7335 -25.9975
lclavicle 3.22777e-014 -3.97569e-015
lhumerus -35.2305 -35.1715 97.8569
lradius 85.2242
lwrist 7.36134
lhand -3.625 -24.4006
lfingers 7.12502
lthumb 22.114 4.35478
rfemur 0 0 0
rtibia 0
rfoot 0 0
rtoes 0
lfemur 13.6341 -8.07838 -12.8386
ltibia -18.0157
lfoot -2.08335 17.8864
ltoes -12.3905
465
root -0.854782 18.2477 5.96937 3.24965 2.31314 -4.09124
lowerback 10.7603 2.59004 3.96411
upperback -1.49626 4.11293 1.68777
thorax -7.4764 1.87575 -1.13812
lowerneck -6.39138 -10.7022 -6.31025
upperneck -24.3565 -11.6337 16.7572
head -4.73776 -6.21048 6.49487
rclavicle -5.60076e-014 7.55382e-015
rhumerus 23.9857 33.2861 -68.2004
rradius 123.938
rwrist 9.65968
rhand -43.9755 5.08963
rfingers 7.12502
rthumb -16.7976 -24.2038
lclavicle -5.60076e-014 7.55382e-015
lhumerus -35.3137 -35.1755 97.9441
lradius 85.3478
lwrist 7.3946
lhand -3.7173 -24.4858
lfingers 7.12502
lthumb 22.0254 4.28005
rfemur 0 0 0
rtibia 0
rfoot 0 0
rtoes 0
lfemur 13.6156 -8.18639 -12.7603
ltibia -18.0386
lfoot -2.07694 17.8915
ltoes -12.2315
